<svg xmlns="http://www.w3.org/2000/svg" xmlns:xlink="http://www.w3.org/1999/xlink" xmlns:pulse="http://www.pulsemicro.com" width="699" height="589">
    <defs/>
    <g opacity="1.0" pulse:type="page" transform="matrix(1.000,0.000,0.000,1.000,0.500,589.324)">
        <pulse:pageSize pulse:PageSizeIsAuto="true"/>
        <g opacity="1.00" pulse:type="layer" pulse:name="Specs">
            <path d="M 0.00 -589.32L 698.74 -589.32L 698.74 -0.00L 0.00 -0.00L 0.00 -589.32z" opacity="0.00" pulse:name="&lt;Path&gt;" pulse:type="shape" fill-rule="nonzero" fill="rgb(35,31,102)" pulse:FillType="solid" stroke-opacity="0">
                <pulse:ColorMetadata>
                    <pulse:Color pulse:colorType="spot,rgb" pulse:colorValues="0.14,0.12,0.40" pulse:colorName="Color1" pulse:colorUsedOn="fill"/>
                </pulse:ColorMetadata>
            </path>
            <path d="M 698.74 -126.00L 0.00 -126.00L 0.00 -414.00L 698.74 -414.00L 698.74 -126.00z" opacity="0.00" pulse:name="Print Area" pulse:type="shape" fill-rule="nonzero" fill="rgb(35,31,102)" pulse:FillType="solid" stroke-opacity="0">
                <pulse:ColorMetadata>
                    <pulse:Color pulse:colorType="spot,rgb" pulse:colorValues="0.14,0.12,0.40" pulse:colorName="Color1" pulse:colorUsedOn="fill"/>
                </pulse:ColorMetadata>
            </path>
        </g>
        <g opacity="1.00" pulse:type="layer" pulse:name="Artwork">
            <g opacity="1.00" pulse:type="group" pulse:name="Text">
                <g opacity="1.00" pulse:type="group" pulse:name="School Text_2">
                    <path d="M 129.32 -184.64L 107.59 -184.64L 107.59 -153.06L 129.32 -153.06L 129.32 -161.49L 124.74 -161.49L 124.74 -163.74L 166.74 -163.74L 166.74 -161.49L 183.98 -161.49L 183.98 -176.25L 166.74 -176.25L 166.74 -174.01L 124.74 -174.01L 124.74 -176.25L 129.32 -176.25L 129.32 -184.64zM 136.93 -215.09L 119.79 -215.09L 107.59 -209.13L 107.59 -192.67L 119.79 -186.70L 171.77 -186.70L 183.98 -192.67L 183.98 -209.13L 171.77 -215.09L 155.18 -215.09L 155.18 -204.82L 164.35 -204.82L 166.74 -203.65L 166.74 -198.18L 164.35 -196.97L 127.21 -196.97L 124.74 -198.18L 124.74 -203.65L 127.21 -204.82L 136.93 -204.82L 136.93 -215.09zM 171.77 -248.65L 124.74 -248.65L 124.74 -250.89L 107.59 -250.89L 107.59 -236.13L 124.74 -236.13L 124.74 -238.38L 164.35 -238.38L 166.74 -237.21L 166.74 -231.74L 164.35 -230.52L 124.74 -230.52L 124.74 -232.77L 107.59 -232.77L 107.59 -218.01L 124.74 -218.01L 124.74 -220.25L 171.77 -220.25L 183.98 -226.22L 183.98 -242.68L 171.77 -248.65zM 166.74 -279.10L 154.35 -279.10L 154.35 -280.62L 157.38 -280.62L 157.38 -289.02L 134.18 -289.02L 134.18 -280.62L 137.21 -280.62L 137.21 -279.10L 124.74 -279.10L 124.74 -285.64L 127.76 -285.64L 127.76 -294.08L 107.59 -294.08L 107.59 -266.59L 124.74 -266.59L 124.74 -268.82L 166.74 -268.82L 166.74 -266.59L 183.98 -266.59L 183.98 -294.08L 163.71 -294.08L 163.71 -285.64L 166.74 -285.64L 166.74 -279.10zM 124.74 -309.28L 124.74 -311.53L 107.59 -311.53L 107.59 -296.77L 124.74 -296.77L 124.74 -299.01L 166.74 -299.01L 166.74 -296.77L 183.98 -296.77L 183.98 -324.44L 162.15 -324.44L 162.15 -316.01L 166.74 -316.01L 166.74 -309.28L 124.74 -309.28zM 183.98 -341.26L 166.74 -341.26L 166.74 -339.02L 124.74 -339.02L 124.74 -341.26L 107.59 -341.26L 107.59 -326.51L 124.74 -326.51L 124.74 -328.75L 166.74 -328.75L 166.74 -326.51L 183.98 -326.51L 183.98 -341.26zM 129.32 -375.53L 107.59 -375.53L 107.59 -343.95L 129.32 -343.95L 129.32 -352.38L 124.74 -352.38L 124.74 -354.63L 166.74 -354.63L 166.74 -352.38L 183.98 -352.38L 183.98 -367.14L 166.74 -367.14L 166.74 -364.90L 124.74 -364.90L 124.74 -367.14L 129.32 -367.14L 129.32 -375.53zM 166.74 -390.11L 154.35 -390.11L 154.35 -391.63L 157.38 -391.63L 157.38 -400.02L 134.18 -400.02L 134.18 -391.63L 137.21 -391.63L 137.21 -390.11L 124.74 -390.11L 124.74 -396.65L 127.76 -396.65L 127.76 -405.09L 107.59 -405.09L 107.59 -377.60L 124.74 -377.60L 124.74 -379.83L 166.74 -379.83L 166.74 -377.60L 183.98 -377.60L 183.98 -405.09L 163.71 -405.09L 163.71 -396.65L 166.74 -396.65L 166.74 -390.11z" opacity="1.00" pulse:name="" pulse:type="shape" fill-rule="nonzero" fill="rgb(0,0,0)" pulse:FillType="solid" stroke-opacity="0">
                        <pulse:ColorMetadata>
                            <pulse:Color pulse:colorType="spot,rgb" pulse:colorValues="0.00,0.00,0.00" pulse:colorName="Victory Black" pulse:colorUsedOn="fill"/>
                        </pulse:ColorMetadata>
                    </path>
                </g>
            </g>
            <g opacity="1.00" pulse:type="group" pulse:name="Mascot Text">
                <path d="M 214.19 -369.53L 214.19 -371.06L 197.27 -371.06L 197.27 -361.00L 214.19 -361.00L 214.19 -362.53L 255.41 -362.53L 255.41 -361.00L 272.24 -361.00L 272.24 -371.06L 255.41 -371.06L 255.41 -369.53L 245.15 -369.53L 245.15 -374.51L 255.41 -374.51L 255.41 -372.99L 272.24 -372.99L 272.24 -383.04L 255.41 -383.04L 255.41 -381.52L 214.19 -381.52L 214.19 -383.04L 197.27 -383.04L 197.27 -372.99L 214.19 -372.99L 214.19 -374.51L 226.71 -374.51L 226.71 -369.53L 214.19 -369.53zM 260.27 -359.17L 209.24 -359.17L 197.27 -355.10L 197.27 -343.88L 209.24 -339.81L 260.27 -339.81L 272.24 -343.88L 272.24 -355.10L 260.27 -359.17zM 252.97 -346.81L 216.54 -346.81L 214.19 -347.61L 214.19 -351.34L 216.54 -352.16L 252.97 -352.16L 255.41 -351.34L 255.41 -347.61L 252.97 -346.81zM 214.19 -329.30L 227.69 -329.30L 227.69 -325.81L 225.26 -324.99L 197.27 -324.99L 197.27 -316.46L 214.19 -316.46L 214.19 -317.99L 231.21 -317.99L 236.15 -319.67L 241.10 -317.99L 260.27 -317.99L 272.24 -322.05L 272.24 -337.83L 255.41 -337.83L 255.41 -336.30L 214.19 -336.30L 214.19 -337.83L 197.27 -337.83L 197.27 -327.77L 214.19 -327.77L 214.19 -329.30zM 244.52 -329.30L 255.41 -329.30L 255.41 -325.81L 252.97 -324.99L 246.96 -324.99L 244.52 -325.81L 244.52 -329.30zM 197.27 -299.28L 197.27 -290.84L 214.19 -290.84L 214.19 -292.37L 255.41 -292.37L 255.41 -290.84L 272.24 -290.84L 272.24 -300.90L 255.41 -300.90L 255.41 -299.37L 237.96 -299.37L 272.24 -306.37L 272.24 -314.66L 255.41 -314.66L 255.41 -313.13L 214.19 -313.13L 214.19 -314.66L 197.27 -314.66L 197.27 -304.60L 214.19 -304.60L 214.19 -306.13L 230.83 -306.13L 197.27 -299.28zM 214.19 -280.47L 226.33 -280.47L 226.33 -279.43L 223.37 -279.43L 223.37 -273.72L 246.15 -273.72L 246.15 -279.43L 243.18 -279.43L 243.18 -280.47L 255.41 -280.47L 255.41 -276.01L 252.44 -276.01L 252.44 -270.26L 272.24 -270.26L 272.24 -289.00L 255.41 -289.00L 255.41 -287.47L 214.19 -287.47L 214.19 -289.00L 197.27 -289.00L 197.27 -270.26L 217.16 -270.26L 217.16 -276.01L 214.19 -276.01L 214.19 -280.47zM 272.24 -268.43L 255.41 -268.43L 255.41 -266.90L 214.19 -266.90L 214.19 -268.43L 197.27 -268.43L 197.27 -252.66L 209.24 -248.59L 260.27 -248.59L 272.24 -252.66L 272.24 -268.43zM 214.19 -259.90L 255.41 -259.90L 255.41 -256.41L 252.97 -255.59L 216.54 -255.59L 214.19 -256.41L 214.19 -259.90zM 226.33 -228.17L 223.37 -228.17L 223.37 -222.45L 246.15 -222.45L 246.15 -228.17L 243.18 -228.17L 243.18 -229.21L 255.41 -229.21L 255.41 -224.74L 252.44 -224.74L 252.44 -218.99L 272.24 -218.99L 272.24 -237.74L 255.41 -237.74L 255.41 -236.21L 214.19 -236.21L 214.19 -237.74L 197.27 -237.74L 197.27 -226.27L 214.19 -226.27L 214.19 -229.21L 226.33 -229.21L 226.33 -228.17zM 214.19 -209.09L 227.69 -209.09L 227.69 -205.60L 225.26 -204.78L 197.27 -204.78L 197.27 -196.25L 214.19 -196.25L 214.19 -197.78L 231.21 -197.78L 236.15 -199.46L 241.10 -197.78L 260.27 -197.78L 272.24 -201.85L 272.24 -217.62L 255.41 -217.62L 255.41 -216.09L 214.19 -216.09L 214.19 -217.62L 197.27 -217.62L 197.27 -207.56L 214.19 -207.56L 214.19 -209.09zM 244.52 -209.09L 255.41 -209.09L 255.41 -205.60L 252.97 -204.78L 246.96 -204.78L 244.52 -205.60L 244.52 -209.09zM 260.27 -194.45L 209.24 -194.45L 197.27 -190.38L 197.27 -179.16L 209.24 -175.10L 260.27 -175.10L 272.24 -179.16L 272.24 -190.38L 260.27 -194.45zM 252.97 -182.10L 216.54 -182.10L 214.19 -182.89L 214.19 -186.62L 216.54 -187.45L 252.97 -187.45L 255.41 -186.62L 255.41 -182.89L 252.97 -182.10zM 238.94 -153.76L 238.94 -162.69L 223.65 -162.69L 223.65 -160.76L 216.54 -160.76L 214.19 -161.56L 214.19 -165.28L 216.54 -166.11L 252.97 -166.11L 255.41 -165.28L 255.41 -161.56L 252.97 -160.76L 243.54 -160.76L 243.54 -153.76L 260.27 -153.76L 272.24 -157.82L 272.24 -169.04L 260.27 -173.11L 209.24 -173.11L 197.27 -169.04L 197.27 -157.82L 209.24 -153.76L 238.94 -153.76zM 226.16 -140.15L 223.72 -139.36L 216.54 -139.36L 214.19 -140.15L 214.19 -143.88L 216.54 -144.71L 223.65 -144.71L 223.65 -151.71L 209.24 -151.71L 197.27 -147.64L 197.27 -136.42L 209.24 -132.36L 231.02 -132.36L 242.99 -136.42L 242.99 -143.88L 245.43 -144.71L 252.97 -144.71L 255.41 -143.88L 255.41 -140.15L 252.97 -139.36L 245.51 -139.36L 245.51 -132.36L 260.27 -132.36L 272.24 -136.42L 272.24 -147.64L 260.27 -151.71L 238.13 -151.71L 226.16 -147.64L 226.16 -140.15z" opacity="1.00" pulse:name="" pulse:type="shape" fill-rule="nonzero" fill="rgb(78,42,132)" pulse:FillType="solid" stroke-opacity="0">
                    <pulse:ColorMetadata>
                        <pulse:Color pulse:colorType="spot,rgb" pulse:colorValues="0.31,0.16,0.52" pulse:colorName="Victory Purple" pulse:colorUsedOn="fill"/>
                    </pulse:ColorMetadata>
                </path>
            </g>
            <g opacity="1.00" pulse:type="group" pulse:name="Art Elements">
                <path d="M 185.18 -132.52L -0.50 -132.52L -0.50 -143.71L 185.18 -143.71L 185.18 -132.52z" opacity="1.00" pulse:name="&lt;Path&gt;" pulse:type="shape" fill-rule="nonzero" fill="rgb(78,42,132)" pulse:FillType="solid" stroke-opacity="0">
                    <pulse:ColorMetadata>
                        <pulse:Color pulse:colorType="spot,rgb" pulse:colorValues="0.31,0.16,0.52" pulse:colorName="Victory Purple" pulse:colorUsedOn="fill"/>
                    </pulse:ColorMetadata>
                </path>
                <path d="M 698.24 -143.71L 291.16 -143.71L 291.16 -132.52L 698.24 -132.52L 698.24 -143.71z" opacity="1.00" pulse:name="&lt;Path&gt;" pulse:type="shape" fill-rule="nonzero" fill="rgb(78,42,132)" pulse:FillType="solid" stroke-opacity="0">
                    <pulse:ColorMetadata>
                        <pulse:Color pulse:colorType="spot,rgb" pulse:colorValues="0.31,0.16,0.52" pulse:colorName="Victory Purple" pulse:colorUsedOn="fill"/>
                    </pulse:ColorMetadata>
                </path>
                <path d="M 193.27 -407.48L 698.24 -407.48L 698.24 -396.29L 193.27 -396.29L 193.27 -407.48z" opacity="1.00" pulse:name="&lt;Path&gt;" pulse:type="shape" fill-rule="nonzero" fill="rgb(78,42,132)" pulse:FillType="solid" stroke-opacity="0">
                    <pulse:ColorMetadata>
                        <pulse:Color pulse:colorType="spot,rgb" pulse:colorValues="0.31,0.16,0.52" pulse:colorName="Victory Purple" pulse:colorUsedOn="fill"/>
                    </pulse:ColorMetadata>
                </path>
                <path d="M -0.50 -396.29L 78.28 -396.29L 78.28 -407.48L -0.50 -407.48L -0.50 -396.29z" opacity="1.00" pulse:name="&lt;Path&gt;" pulse:type="shape" fill-rule="nonzero" fill="rgb(78,42,132)" pulse:FillType="solid" stroke-opacity="0">
                    <pulse:ColorMetadata>
                        <pulse:Color pulse:colorType="spot,rgb" pulse:colorValues="0.31,0.16,0.52" pulse:colorName="Victory Purple" pulse:colorUsedOn="fill"/>
                    </pulse:ColorMetadata>
                </path>
            </g>
            <g opacity="1.00" pulse:type="group" pulse:name="MASCOT">
                <g opacity="1.00" pulse:type="group" pulse:name="MASCOT">
                    <g opacity="1.00" pulse:type="group" pulse:name="OUTLINE">
                        <path d="M 567.73 -295.72L 566.82 -297.27L 566.25 -297.27L 566.25 -295.72L 565.91 -295.72L 565.91 -299.06L 566.94 -299.06C 567.62 -299.06 568.04 -298.77 568.04 -298.17C 568.04 -297.71 567.73 -297.35 567.18 -297.31L 568.15 -295.72L 567.73 -295.72zM 566.86 -299.78C 565.54 -299.78 564.47 -298.71 564.47 -297.39C 564.47 -296.07 565.54 -295.00 566.86 -295.00C 568.18 -295.00 569.25 -296.07 569.25 -297.39C 569.25 -298.71 568.18 -299.78 566.86 -299.78z" opacity="1.00" pulse:name="&lt;Compound Path&gt;" pulse:type="shape" fill-rule="nonzero" fill="rgb(255,255,255)" pulse:FillType="solid" stroke-opacity="0">
                            <pulse:ColorMetadata>
                                <pulse:Color pulse:colorType="spot,rgb" pulse:colorValues="1.00,1.00,1.00" pulse:colorName="Victory White" pulse:colorUsedOn="fill"/>
                            </pulse:ColorMetadata>
                        </path>
                        <path d="M 567.67 -298.17C 567.67 -298.49 567.46 -298.75 566.85 -298.75L 566.25 -298.75L 566.25 -297.58L 566.85 -297.58C 567.46 -297.58 567.67 -297.85 567.67 -298.17z" opacity="1.00" pulse:name="&lt;Path&gt;" pulse:type="shape" fill-rule="nonzero" fill="rgb(255,255,255)" pulse:FillType="solid" stroke-opacity="0">
                            <pulse:ColorMetadata>
                                <pulse:Color pulse:colorType="spot,rgb" pulse:colorValues="1.00,1.00,1.00" pulse:colorName="Victory White" pulse:colorUsedOn="fill"/>
                            </pulse:ColorMetadata>
                        </path>
                        <path d="M 429.40 -347.05C 453.47 -357.82 476.70 -359.85 476.70 -359.85C 476.70 -359.85 476.70 -359.85 476.70 -337.42C 472.19 -336.74 462.88 -334.43 462.88 -334.43L 462.88 -342.60L 460.74 -341.98L 460.74 -314.77C 464.38 -315.89 466.89 -316.56 466.89 -316.56C 466.89 -316.56 466.89 -316.56 466.77 -301.17C 457.13 -298.69 440.17 -290.23 440.17 -290.23C 440.17 -290.23 440.17 -290.23 440.17 -306.92C 442.03 -307.90 444.18 -308.86 446.42 -309.78L 446.42 -337.80L 443.94 -337.08L 443.94 -328.85L 429.40 -322.70C 429.40 -322.70 429.40 -322.70 429.40 -347.05zM 479.76 -348.54L 491.45 -360.68C 500.65 -361.35 511.02 -360.68 511.02 -360.68L 522.52 -348.58L 522.52 -335.70L 508.21 -337.13L 508.18 -342.54L 504.35 -346.32L 497.98 -346.32L 494.34 -342.63L 494.19 -322.46L 496.59 -319.79L 505.12 -319.90L 508.13 -322.87L 508.02 -329.26L 522.52 -327.72L 522.52 -316.41L 510.72 -304.68C 504.49 -305.70 490.99 -304.68 490.99 -304.68L 479.68 -316.56L 479.76 -348.54zM 525.19 -359.78C 525.19 -359.78 536.42 -358.15 549.13 -354.98L 549.13 -339.80C 547.59 -340.24 545.99 -340.67 544.34 -341.09L 544.34 -317.63L 547.44 -312.50L 553.59 -310.12L 556.52 -312.72L 556.32 -337.55C 555.14 -337.95 553.91 -338.36 552.63 -338.76L 552.63 -354.07C 561.12 -351.80 569.87 -348.86 576.11 -345.27C 576.19 -328.81 576.19 -328.81 576.19 -328.81C 576.19 -328.81 574.33 -329.95 570.83 -331.64L 570.83 -305.96L 555.67 -292.88C 555.67 -292.88 546.05 -298.07 538.05 -299.76C 529.44 -314.19 529.44 -314.19 529.44 -314.19L 529.44 -344.08C 528.05 -344.29 526.63 -344.49 525.19 -344.67L 525.19 -359.78zM 566.86 -294.65C 565.35 -294.65 564.12 -295.88 564.12 -297.39C 564.12 -298.90 565.35 -300.13 566.86 -300.13C 568.37 -300.13 569.60 -298.90 569.60 -297.39C 569.60 -295.88 568.37 -294.65 566.86 -294.65zM 427.65 -320.07C 428.18 -319.72 428.79 -319.54 429.40 -319.54C 429.82 -319.54 430.24 -319.62 430.63 -319.79L 443.26 -325.12L 443.26 -311.88C 441.56 -311.14 440.03 -310.42 438.69 -309.72C 437.65 -309.17 437.00 -308.09 437.00 -306.92L 437.00 -290.23C 437.00 -289.14 437.57 -288.12 438.50 -287.54C 439.01 -287.23 439.59 -287.07 440.17 -287.07C 440.65 -287.07 441.13 -287.18 441.58 -287.40C 441.74 -287.48 458.36 -295.74 467.56 -298.11C 468.95 -298.46 469.93 -299.71 469.94 -301.15L 470.05 -316.53C 470.06 -317.52 469.60 -318.46 468.82 -319.06C 468.26 -319.49 467.58 -319.72 466.89 -319.72C 466.61 -319.72 466.34 -319.69 466.07 -319.61C 466.01 -319.60 465.22 -319.39 463.91 -319.01L 463.91 -331.42C 465.35 -331.78 472.51 -333.52 476.56 -334.19L 476.52 -316.57C 476.52 -315.75 476.83 -314.97 477.39 -314.38L 488.70 -302.50C 489.30 -301.87 490.13 -301.52 490.99 -301.52C 491.07 -301.52 491.15 -301.52 491.23 -301.53C 491.29 -301.53 497.18 -301.97 502.84 -301.97C 506.06 -301.97 508.54 -301.83 510.22 -301.56C 510.39 -301.53 510.56 -301.52 510.72 -301.52C 511.55 -301.52 512.36 -301.85 512.95 -302.44L 524.75 -314.16C 525.35 -314.76 525.69 -315.57 525.69 -316.41L 525.69 -327.72C 525.69 -329.34 524.47 -330.69 522.86 -330.86L 508.35 -332.41C 508.24 -332.42 508.13 -332.42 508.02 -332.42C 507.23 -332.42 506.47 -332.13 505.88 -331.59C 505.21 -330.98 504.84 -330.11 504.86 -329.20L 504.94 -324.17L 503.81 -323.05L 497.98 -322.97L 497.36 -323.66L 497.49 -341.32L 499.30 -343.16L 503.05 -343.16L 505.02 -341.21L 505.04 -337.12C 505.05 -335.50 506.28 -334.15 507.89 -333.99L 522.21 -332.55C 522.31 -332.54 522.42 -332.53 522.52 -332.53C 523.31 -332.53 524.06 -332.82 524.65 -333.35C 525.31 -333.95 525.69 -334.80 525.69 -335.70L 525.69 -341.42C 525.88 -341.39 526.08 -341.37 526.28 -341.34L 526.28 -314.19C 526.28 -313.62 526.43 -313.06 526.72 -312.57L 535.33 -298.14C 535.78 -297.38 536.53 -296.85 537.39 -296.66C 544.83 -295.09 554.04 -290.17 554.17 -290.10C 554.64 -289.84 555.16 -289.72 555.67 -289.72C 556.41 -289.72 557.15 -289.98 557.74 -290.49L 561.95 -294.12C 563.01 -292.54 564.82 -291.49 566.86 -291.49C 570.11 -291.49 572.76 -294.14 572.76 -297.39C 572.76 -299.13 572.01 -300.68 570.81 -301.76L 572.90 -303.57C 573.60 -304.17 574.00 -305.04 574.00 -305.96L 574.00 -326.43C 574.35 -326.23 574.53 -326.12 574.54 -326.11C 575.04 -325.80 575.62 -325.65 576.19 -325.65C 576.72 -325.65 577.26 -325.78 577.74 -326.05C 578.74 -326.62 579.36 -327.68 579.35 -328.82L 579.28 -345.28C 579.27 -346.41 578.67 -347.45 577.69 -348.01C 572.01 -351.27 563.86 -354.34 553.45 -357.13C 553.18 -357.20 552.90 -357.24 552.63 -357.24C 552.25 -357.24 551.88 -357.17 551.53 -357.04C 551.11 -357.52 550.55 -357.88 549.90 -358.05C 537.17 -361.22 526.11 -362.84 525.65 -362.91C 525.49 -362.93 525.34 -362.94 525.19 -362.94C 524.44 -362.94 523.70 -362.67 523.12 -362.17C 522.43 -361.57 522.03 -360.69 522.03 -359.78L 522.03 -353.69L 513.32 -362.86C 512.77 -363.43 512.02 -363.78 511.23 -363.83C 511.04 -363.85 506.45 -364.14 500.61 -364.14C 497.17 -364.14 494.01 -364.04 491.21 -363.83C 490.44 -363.77 489.71 -363.43 489.17 -362.87L 479.86 -353.20L 479.86 -359.85C 479.86 -360.74 479.49 -361.58 478.83 -362.18C 478.25 -362.72 477.48 -363.01 476.70 -363.01C 476.60 -363.01 476.51 -363.01 476.42 -363.00C 475.45 -362.92 452.39 -360.80 428.11 -349.94C 426.97 -349.43 426.24 -348.30 426.24 -347.05L 426.24 -322.70C 426.24 -321.64 426.77 -320.65 427.65 -320.07z" opacity="1.00" pulse:name="&lt;Compound Path&gt;" pulse:type="shape" fill-rule="nonzero" fill="rgb(255,255,255)" pulse:FillType="solid" stroke-opacity="0">
                            <pulse:ColorMetadata>
                                <pulse:Color pulse:colorType="spot,rgb" pulse:colorValues="1.00,1.00,1.00" pulse:colorName="Victory White" pulse:colorUsedOn="fill"/>
                            </pulse:ColorMetadata>
                        </path>
                        <path d="M 507.20 -260.58L 509.86 -252.01L 502.67 -257.39L 495.34 -252.21L 498.23 -260.71L 491.05 -266.08L 500.02 -265.96L 502.91 -274.45L 505.56 -265.88L 514.54 -265.76L 507.20 -260.58zM 517.56 -266.69C 517.15 -268.00 515.95 -268.90 514.58 -268.92L 507.91 -269.01L 505.93 -275.39C 505.53 -276.70 504.32 -277.60 502.95 -277.62C 502.94 -277.62 502.92 -277.62 502.91 -277.62C 501.56 -277.62 500.35 -276.75 499.92 -275.47L 497.76 -269.15C 497.76 -269.15 491.06 -269.25 491.05 -269.25C 489.69 -269.25 488.49 -268.39 488.05 -267.10C 487.61 -265.80 488.05 -264.37 489.15 -263.55L 494.50 -259.55L 492.35 -253.23C 491.91 -251.93 492.35 -250.50 493.45 -249.68C 494.01 -249.26 494.67 -249.05 495.34 -249.05C 495.98 -249.05 496.62 -249.24 497.16 -249.63L 502.62 -253.48L 507.96 -249.48C 508.52 -249.06 509.19 -248.85 509.86 -248.85C 510.50 -248.85 511.13 -249.04 511.68 -249.43C 512.80 -250.22 513.28 -251.64 512.88 -252.95L 510.91 -259.32L 516.36 -263.17C 517.48 -263.96 517.96 -265.38 517.56 -266.69z" opacity="1.00" pulse:name="&lt;Compound Path&gt;" pulse:type="shape" fill-rule="nonzero" fill="rgb(255,255,255)" pulse:FillType="solid" stroke-opacity="0">
                            <pulse:ColorMetadata>
                                <pulse:Color pulse:colorType="spot,rgb" pulse:colorValues="1.00,1.00,1.00" pulse:colorName="Victory White" pulse:colorUsedOn="fill"/>
                            </pulse:ColorMetadata>
                        </path>
                        <path d="M 502.82 -268.31L 501.37 -264.04L 496.86 -264.10L 500.47 -261.40L 499.02 -257.13L 502.71 -259.73L 506.32 -257.03L 504.98 -261.34L 508.67 -263.94L 504.16 -264.00L 502.82 -268.31z" opacity="1.00" pulse:name="&lt;Path&gt;" pulse:type="shape" fill-rule="nonzero" fill="rgb(255,255,255)" pulse:FillType="solid" stroke-opacity="0">
                            <pulse:ColorMetadata>
                                <pulse:Color pulse:colorType="spot,rgb" pulse:colorValues="1.00,1.00,1.00" pulse:colorName="Victory White" pulse:colorUsedOn="fill"/>
                            </pulse:ColorMetadata>
                        </path>
                        <path d="M 480.00 -247.48L 465.99 -247.48L 466.58 -249.29L 466.58 -273.76L 465.99 -275.53L 480.00 -275.53L 480.85 -270.36L 478.93 -270.92L 471.74 -270.92L 471.19 -270.36L 471.19 -264.57L 471.74 -264.02L 474.10 -264.02L 475.91 -264.61L 475.91 -258.74L 474.10 -259.33L 471.74 -259.33L 471.19 -258.81L 471.19 -252.76L 471.74 -252.20L 478.93 -252.20L 480.85 -252.76L 480.00 -247.48zM 461.75 -270.81L 458.25 -270.81L 457.74 -270.29L 457.74 -249.25L 458.33 -247.48L 452.47 -247.48L 453.06 -249.25L 453.06 -270.29L 452.50 -270.81L 448.93 -270.81L 447.01 -270.29L 447.86 -275.53L 462.86 -275.53L 463.75 -270.29L 461.75 -270.81zM 444.76 -247.48L 438.98 -247.48L 439.57 -249.25L 439.57 -273.72L 438.98 -275.53L 444.76 -275.53L 444.17 -273.72L 444.17 -249.25L 444.76 -247.48zM 435.81 -247.48L 421.80 -247.48L 422.39 -249.25L 422.39 -273.72L 421.80 -275.53L 427.59 -275.53L 427.03 -273.72L 427.03 -252.68L 427.59 -252.17L 434.74 -252.17L 436.65 -252.68L 435.81 -247.48zM 410.38 -264.02L 412.73 -264.02L 414.54 -264.61L 414.54 -258.74L 412.73 -259.33L 410.38 -259.33L 409.82 -258.81L 409.82 -252.76L 410.38 -252.20L 417.56 -252.20L 419.48 -252.76L 418.63 -247.48L 404.62 -247.48L 405.21 -249.29L 405.21 -273.76L 404.62 -275.53L 418.63 -275.53L 419.48 -270.36L 417.56 -270.92L 410.38 -270.92L 409.82 -270.36L 409.82 -264.57L 410.38 -264.02zM 480.85 -255.92C 480.55 -255.92 480.26 -255.88 479.97 -255.80L 478.48 -255.37L 474.35 -255.37L 474.35 -255.92L 474.93 -255.73C 475.25 -255.63 475.58 -255.57 475.91 -255.57C 476.57 -255.57 477.22 -255.78 477.76 -256.18C 478.59 -256.77 479.07 -257.72 479.07 -258.74L 479.07 -264.61C 479.07 -265.62 478.59 -266.57 477.77 -267.17C 477.30 -267.50 476.76 -267.70 476.21 -267.75L 478.48 -267.75L 479.97 -267.33C 480.26 -267.24 480.55 -267.20 480.85 -267.20C 481.61 -267.20 482.36 -267.48 482.95 -268.00C 483.76 -268.72 484.14 -269.81 483.97 -270.88L 483.12 -276.04C 482.87 -277.57 481.55 -278.69 480.00 -278.69L 465.99 -278.69C 465.44 -278.69 464.90 -278.54 464.43 -278.28C 463.97 -278.54 463.43 -278.69 462.86 -278.69L 447.86 -278.69C 447.30 -278.69 446.77 -278.55 446.31 -278.29C 445.84 -278.55 445.31 -278.69 444.76 -278.69L 438.98 -278.69C 437.96 -278.69 437.01 -278.21 436.42 -277.39C 435.82 -276.57 435.66 -275.51 435.97 -274.55L 436.40 -273.22L 436.40 -255.83C 436.21 -255.81 436.02 -255.79 435.83 -255.74L 434.32 -255.33L 430.20 -255.33L 430.20 -273.25L 430.61 -274.61C 430.91 -275.57 430.73 -276.61 430.13 -277.41C 429.53 -278.22 428.59 -278.69 427.59 -278.69L 421.80 -278.69C 421.24 -278.69 420.70 -278.54 420.22 -278.27C 419.75 -278.54 419.21 -278.69 418.63 -278.69L 404.62 -278.69C 403.61 -278.69 402.65 -278.21 402.06 -277.38C 401.46 -276.56 401.30 -275.50 401.62 -274.53L 402.05 -273.25L 402.05 -249.79L 401.62 -248.46C 401.30 -247.50 401.47 -246.44 402.06 -245.62C 402.66 -244.80 403.61 -244.32 404.62 -244.32L 418.63 -244.32C 419.21 -244.32 419.75 -244.47 420.22 -244.75C 420.70 -244.47 421.24 -244.32 421.80 -244.32L 435.81 -244.32C 436.38 -244.32 436.93 -244.47 437.40 -244.74C 437.87 -244.47 438.41 -244.32 438.98 -244.32L 444.76 -244.32C 445.78 -244.32 446.73 -244.80 447.33 -245.63C 447.92 -246.45 448.09 -247.51 447.76 -248.48L 447.34 -249.76L 447.34 -267.15C 447.50 -267.17 447.67 -267.19 447.83 -267.24L 449.35 -267.64L 449.89 -267.64L 449.89 -249.76L 449.47 -248.48C 449.14 -247.51 449.31 -246.45 449.90 -245.63C 450.50 -244.80 451.45 -244.32 452.47 -244.32L 458.33 -244.32C 459.34 -244.32 460.30 -244.80 460.89 -245.63C 461.49 -246.45 461.65 -247.51 461.33 -248.48L 460.90 -249.76L 460.90 -267.64L 461.35 -267.64L 462.95 -267.23C 463.11 -267.19 463.26 -267.16 463.42 -267.15L 463.42 -249.79L 462.99 -248.46C 462.67 -247.50 462.84 -246.44 463.43 -245.62C 464.03 -244.80 464.98 -244.32 465.99 -244.32L 480.00 -244.32C 481.55 -244.32 482.88 -245.44 483.12 -246.98L 483.97 -252.26C 484.14 -253.33 483.75 -254.41 482.94 -255.13C 482.36 -255.64 481.61 -255.92 480.85 -255.92z" opacity="1.00" pulse:name="&lt;Compound Path&gt;" pulse:type="shape" fill-rule="nonzero" fill="rgb(255,255,255)" pulse:FillType="solid" stroke-opacity="0">
                            <pulse:ColorMetadata>
                                <pulse:Color pulse:colorType="spot,rgb" pulse:colorValues="1.00,1.00,1.00" pulse:colorName="Victory White" pulse:colorUsedOn="fill"/>
                            </pulse:ColorMetadata>
                        </path>
                        <path d="M 526.51 -270.92L 525.96 -270.36L 525.96 -252.76L 526.51 -252.20L 530.09 -252.20L 530.64 -252.76L 530.64 -270.36L 530.09 -270.92L 526.51 -270.92z" opacity="1.00" pulse:name="&lt;Path&gt;" pulse:type="shape" fill-rule="nonzero" fill="rgb(255,255,255)" pulse:FillType="solid" stroke-opacity="0">
                            <pulse:ColorMetadata>
                                <pulse:Color pulse:colorType="spot,rgb" pulse:colorValues="1.00,1.00,1.00" pulse:colorName="Victory White" pulse:colorUsedOn="fill"/>
                            </pulse:ColorMetadata>
                        </path>
                        <path d="M 544.76 -258.55L 545.20 -258.15L 547.93 -258.15L 548.37 -258.55L 546.56 -267.52L 544.76 -258.55z" opacity="1.00" pulse:name="&lt;Path&gt;" pulse:type="shape" fill-rule="nonzero" fill="rgb(255,255,255)" pulse:FillType="solid" stroke-opacity="0">
                            <pulse:ColorMetadata>
                                <pulse:Color pulse:colorType="spot,rgb" pulse:colorValues="1.00,1.00,1.00" pulse:colorName="Victory White" pulse:colorUsedOn="fill"/>
                            </pulse:ColorMetadata>
                        </path>
                        <path d="M 609.74 -247.48L 595.73 -247.48L 596.32 -249.29L 596.32 -273.76L 595.73 -275.53L 609.74 -275.53L 610.59 -270.36L 608.67 -270.92L 601.48 -270.92L 600.93 -270.36L 600.93 -264.57L 601.48 -264.02L 603.84 -264.02L 605.65 -264.61L 605.65 -258.74L 603.84 -259.33L 601.48 -259.33L 600.93 -258.81L 600.93 -252.76L 601.48 -252.20L 608.67 -252.20L 610.59 -252.76L 609.74 -247.48zM 587.25 -270.92L 583.61 -270.92L 583.05 -270.36L 583.05 -252.76L 583.61 -252.20L 587.25 -252.20L 587.77 -252.76L 587.77 -254.57L 587.14 -256.34L 593.00 -256.34L 592.41 -254.57L 592.41 -249.80L 590.09 -247.48L 580.77 -247.48L 578.41 -249.80L 578.41 -273.24L 580.77 -275.53L 590.09 -275.53L 592.41 -273.24L 592.41 -268.52L 593.00 -266.75L 587.14 -266.75L 587.77 -268.52L 587.77 -270.36L 587.25 -270.92zM 574.87 -247.48L 569.60 -247.48L 562.82 -264.53L 562.82 -249.25L 563.41 -247.48L 557.62 -247.48L 558.21 -249.25L 558.21 -273.72L 557.62 -275.53L 562.82 -275.53L 569.60 -258.44L 569.60 -273.72L 569.01 -275.53L 574.87 -275.53L 574.28 -273.72L 574.28 -249.25L 574.87 -247.48zM 550.03 -247.48L 550.43 -248.59L 549.40 -252.87L 548.85 -253.42L 544.24 -253.42L 543.69 -252.87L 542.66 -248.59L 543.06 -247.48L 537.20 -247.48L 538.12 -249.36L 543.87 -273.91L 543.36 -275.53L 549.73 -275.53L 549.22 -273.91L 554.97 -249.36L 555.89 -247.48L 550.03 -247.48zM 535.36 -249.80L 533.00 -247.48L 520.76 -247.48L 521.28 -249.29L 521.28 -273.76L 520.76 -275.53L 533.00 -275.53L 535.36 -273.24L 535.36 -249.80zM 612.68 -255.13C 612.10 -255.64 611.35 -255.92 610.59 -255.92C 610.29 -255.92 610.00 -255.88 609.71 -255.80L 608.22 -255.37L 604.09 -255.37L 604.09 -255.92L 604.66 -255.73C 604.99 -255.63 605.32 -255.57 605.65 -255.57C 606.31 -255.57 606.96 -255.78 607.50 -256.18C 608.32 -256.77 608.81 -257.72 608.81 -258.74L 608.81 -264.61C 608.81 -265.62 608.32 -266.57 607.50 -267.17C 607.04 -267.50 606.50 -267.70 605.95 -267.75L 608.22 -267.75L 609.71 -267.33C 610.00 -267.24 610.29 -267.20 610.59 -267.20C 611.35 -267.20 612.10 -267.48 612.69 -268.00C 613.50 -268.72 613.88 -269.81 613.71 -270.88L 612.86 -276.04C 612.61 -277.57 611.29 -278.69 609.74 -278.69L 595.73 -278.69C 594.72 -278.69 593.76 -278.21 593.17 -277.38C 593.10 -277.29 593.05 -277.20 593.00 -277.11L 592.31 -277.78C 591.72 -278.37 590.92 -278.69 590.09 -278.69L 580.77 -278.69C 579.95 -278.69 579.15 -278.37 578.56 -277.80L 577.69 -276.95C 577.61 -277.10 577.53 -277.25 577.43 -277.39C 576.84 -278.21 575.88 -278.69 574.87 -278.69L 569.01 -278.69C 568.00 -278.69 567.05 -278.21 566.45 -277.39C 566.20 -277.05 566.03 -276.66 565.93 -276.26L 565.76 -276.70C 565.28 -277.90 564.11 -278.69 562.82 -278.69L 557.62 -278.69C 556.61 -278.69 555.66 -278.21 555.06 -277.39C 554.47 -276.57 554.30 -275.51 554.61 -274.55L 555.05 -273.22L 555.05 -262.89L 552.50 -273.78L 552.75 -274.57C 553.05 -275.54 552.88 -276.59 552.29 -277.40C 551.69 -278.21 550.74 -278.69 549.73 -278.69L 543.36 -278.69C 542.35 -278.69 541.40 -278.21 540.80 -277.40C 540.21 -276.59 540.04 -275.54 540.34 -274.57L 540.59 -273.78L 538.52 -264.93L 538.52 -273.24C 538.52 -274.10 538.18 -274.92 537.56 -275.51L 535.20 -277.80C 534.61 -278.37 533.82 -278.69 533.00 -278.69L 520.76 -278.69C 519.77 -278.69 518.83 -278.23 518.23 -277.43C 517.64 -276.63 517.45 -275.60 517.73 -274.65L 518.12 -273.31L 518.12 -249.73L 517.72 -248.35C 517.45 -247.39 517.64 -246.37 518.24 -245.57C 518.84 -244.78 519.77 -244.32 520.76 -244.32L 533.00 -244.32C 533.78 -244.32 534.52 -244.61 535.10 -245.12C 535.67 -244.61 536.42 -244.32 537.20 -244.32L 543.06 -244.32C 544.09 -244.32 545.06 -244.82 545.65 -245.67C 546.25 -246.51 546.39 -247.60 546.03 -248.57L 545.96 -248.78L 546.31 -250.26L 546.78 -250.26L 547.13 -248.78L 547.06 -248.57C 546.70 -247.60 546.84 -246.51 547.44 -245.67C 548.03 -244.82 549.00 -244.32 550.03 -244.32L 555.89 -244.32C 556.19 -244.32 556.48 -244.36 556.76 -244.44C 557.04 -244.36 557.32 -244.32 557.62 -244.32L 563.41 -244.32C 564.42 -244.32 565.38 -244.80 565.97 -245.63C 566.22 -245.97 566.39 -246.35 566.49 -246.75L 566.66 -246.31C 567.14 -245.11 568.30 -244.32 569.60 -244.32L 574.87 -244.32C 575.89 -244.32 576.84 -244.80 577.44 -245.63C 577.54 -245.77 577.62 -245.92 577.69 -246.07L 578.55 -245.23C 579.14 -244.64 579.94 -244.32 580.77 -244.32L 590.09 -244.32C 590.93 -244.32 591.74 -244.65 592.33 -245.24L 592.99 -245.91C 593.05 -245.81 593.11 -245.71 593.17 -245.62C 593.77 -244.80 594.72 -244.32 595.73 -244.32L 609.74 -244.32C 611.29 -244.32 612.61 -245.44 612.86 -246.98L 613.71 -252.26C 613.88 -253.32 613.49 -254.41 612.68 -255.13z" opacity="1.00" pulse:name="&lt;Compound Path&gt;" pulse:type="shape" fill-rule="nonzero" fill="rgb(255,255,255)" pulse:FillType="solid" stroke-opacity="0">
                            <pulse:ColorMetadata>
                                <pulse:Color pulse:colorType="spot,rgb" pulse:colorValues="1.00,1.00,1.00" pulse:colorName="Victory White" pulse:colorUsedOn="fill"/>
                            </pulse:ColorMetadata>
                        </path>
                    </g>
                    <g opacity="1.00" pulse:type="group" pulse:name="Victory Purple">
                        <path d="M 443.94 -337.08L 446.42 -337.80L 446.42 -309.78C 444.18 -308.86 442.03 -307.90 440.17 -306.92C 440.17 -290.23 440.17 -290.23 440.17 -290.23C 440.17 -290.23 457.13 -298.69 466.77 -301.17C 466.89 -316.56 466.89 -316.56 466.89 -316.56C 466.89 -316.56 464.38 -315.89 460.74 -314.77L 460.74 -341.98L 462.88 -342.60L 462.88 -334.43C 462.88 -334.43 472.19 -336.74 476.70 -337.42C 476.70 -359.85 476.70 -359.85 476.70 -359.85C 476.70 -359.85 453.47 -357.82 429.40 -347.05C 429.40 -322.70 429.40 -322.70 429.40 -322.70L 443.94 -328.85L 443.94 -337.08z" opacity="1.00" pulse:name="&lt;Path&gt;" pulse:type="shape" fill-rule="nonzero" fill="rgb(78,42,132)" pulse:FillType="solid" stroke-opacity="0">
                            <pulse:ColorMetadata>
                                <pulse:Color pulse:colorType="spot,rgb" pulse:colorValues="0.31,0.16,0.52" pulse:colorName="Victory Purple" pulse:colorUsedOn="fill"/>
                            </pulse:ColorMetadata>
                        </path>
                        <path d="M 510.72 -304.68L 522.52 -316.41L 522.52 -327.72L 508.02 -329.26L 508.13 -322.87L 505.12 -319.90L 496.59 -319.79L 494.19 -322.46L 494.34 -342.63L 497.98 -346.32L 504.35 -346.32L 508.18 -342.54L 508.21 -337.13L 522.52 -335.70L 522.52 -348.58L 511.02 -360.68C 511.02 -360.68 500.65 -361.35 491.45 -360.68L 479.76 -348.54L 479.68 -316.56L 490.99 -304.68C 490.99 -304.68 504.49 -305.70 510.72 -304.68z" opacity="1.00" pulse:name="&lt;Path&gt;" pulse:type="shape" fill-rule="nonzero" fill="rgb(78,42,132)" pulse:FillType="solid" stroke-opacity="0">
                            <pulse:ColorMetadata>
                                <pulse:Color pulse:colorType="spot,rgb" pulse:colorValues="0.31,0.16,0.52" pulse:colorName="Victory Purple" pulse:colorUsedOn="fill"/>
                            </pulse:ColorMetadata>
                        </path>
                        <path d="M 552.63 -354.07L 552.63 -338.76C 553.91 -338.36 555.14 -337.95 556.32 -337.55L 556.52 -312.72L 553.59 -310.12L 547.44 -312.50L 544.34 -317.63L 544.34 -341.09C 545.99 -340.67 547.59 -340.24 549.13 -339.80L 549.13 -354.98C 536.42 -358.15 525.19 -359.78 525.19 -359.78L 525.19 -344.67C 526.63 -344.49 528.05 -344.29 529.44 -344.08L 529.44 -314.19C 529.44 -314.19 529.44 -314.19 538.05 -299.76C 546.05 -298.07 555.67 -292.88 555.67 -292.88L 570.83 -305.96L 570.83 -331.64C 574.33 -329.95 576.19 -328.81 576.19 -328.81C 576.19 -328.81 576.19 -328.81 576.11 -345.27C 569.87 -348.86 561.12 -351.80 552.63 -354.07z" opacity="1.00" pulse:name="&lt;Path&gt;" pulse:type="shape" fill-rule="nonzero" fill="rgb(78,42,132)" pulse:FillType="solid" stroke-opacity="0">
                            <pulse:ColorMetadata>
                                <pulse:Color pulse:colorType="spot,rgb" pulse:colorValues="0.31,0.16,0.52" pulse:colorName="Victory Purple" pulse:colorUsedOn="fill"/>
                            </pulse:ColorMetadata>
                        </path>
                        <path d="M 506.32 -257.03L 502.71 -259.73L 499.02 -257.13L 500.47 -261.40L 496.86 -264.10L 501.37 -264.04L 502.82 -268.31L 504.16 -264.00L 508.67 -263.94L 504.98 -261.34L 506.32 -257.03zM 505.56 -265.88L 502.91 -274.45L 500.02 -265.96L 491.05 -266.08L 498.23 -260.71L 495.34 -252.21L 502.67 -257.39L 509.86 -252.01L 507.20 -260.58L 514.54 -265.76L 505.56 -265.88z" opacity="1.00" pulse:name="&lt;Compound Path&gt;" pulse:type="shape" fill-rule="nonzero" fill="rgb(78,42,132)" pulse:FillType="solid" stroke-opacity="0">
                            <pulse:ColorMetadata>
                                <pulse:Color pulse:colorType="spot,rgb" pulse:colorValues="0.31,0.16,0.52" pulse:colorName="Victory Purple" pulse:colorUsedOn="fill"/>
                            </pulse:ColorMetadata>
                        </path>
                        <path d="M 564.47 -297.39C 564.47 -298.71 565.54 -299.78 566.86 -299.78C 568.18 -299.78 569.25 -298.71 569.25 -297.39C 569.25 -296.07 568.18 -295.00 566.86 -295.00C 565.54 -295.00 564.47 -296.07 564.47 -297.39zM 569.60 -297.39C 569.60 -298.90 568.37 -300.13 566.86 -300.13C 565.35 -300.13 564.12 -298.90 564.12 -297.39C 564.12 -295.88 565.35 -294.65 566.86 -294.65C 568.37 -294.65 569.60 -295.88 569.60 -297.39z" opacity="1.00" pulse:name="&lt;Compound Path&gt;" pulse:type="shape" fill-rule="nonzero" fill="rgb(78,42,132)" pulse:FillType="solid" stroke-opacity="0">
                            <pulse:ColorMetadata>
                                <pulse:Color pulse:colorType="spot,rgb" pulse:colorValues="0.31,0.16,0.52" pulse:colorName="Victory Purple" pulse:colorUsedOn="fill"/>
                            </pulse:ColorMetadata>
                        </path>
                        <path d="M 566.25 -297.58L 566.25 -298.75L 566.85 -298.75C 567.46 -298.75 567.67 -298.49 567.67 -298.17C 567.67 -297.85 567.46 -297.58 566.85 -297.58L 566.25 -297.58zM 568.15 -295.72L 567.18 -297.31C 567.73 -297.35 568.04 -297.71 568.04 -298.17C 568.04 -298.77 567.62 -299.06 566.94 -299.06L 565.91 -299.06L 565.91 -295.72L 566.25 -295.72L 566.25 -297.27L 566.82 -297.27L 567.73 -295.72L 568.15 -295.72z" opacity="1.00" pulse:name="&lt;Compound Path&gt;" pulse:type="shape" fill-rule="nonzero" fill="rgb(78,42,132)" pulse:FillType="solid" stroke-opacity="0">
                            <pulse:ColorMetadata>
                                <pulse:Color pulse:colorType="spot,rgb" pulse:colorValues="0.31,0.16,0.52" pulse:colorName="Victory Purple" pulse:colorUsedOn="fill"/>
                            </pulse:ColorMetadata>
                        </path>
                        <path d="M 410.38 -270.92L 417.56 -270.92L 419.48 -270.36L 418.63 -275.53L 404.62 -275.53L 405.21 -273.76L 405.21 -249.29L 404.62 -247.48L 418.63 -247.48L 419.48 -252.76L 417.56 -252.20L 410.38 -252.20L 409.82 -252.76L 409.82 -258.81L 410.38 -259.33L 412.73 -259.33L 414.54 -258.74L 414.54 -264.61L 412.73 -264.02L 410.38 -264.02L 409.82 -264.57L 409.82 -270.36L 410.38 -270.92z" opacity="1.00" pulse:name="&lt;Path&gt;" pulse:type="shape" fill-rule="nonzero" fill="rgb(78,42,132)" pulse:FillType="solid" stroke-opacity="0">
                            <pulse:ColorMetadata>
                                <pulse:Color pulse:colorType="spot,rgb" pulse:colorValues="0.31,0.16,0.52" pulse:colorName="Victory Purple" pulse:colorUsedOn="fill"/>
                            </pulse:ColorMetadata>
                        </path>
                        <path d="M 427.59 -252.17L 427.03 -252.68L 427.03 -273.72L 427.59 -275.53L 421.80 -275.53L 422.39 -273.72L 422.39 -249.25L 421.80 -247.48L 435.81 -247.48L 436.65 -252.68L 434.74 -252.17L 427.59 -252.17z" opacity="1.00" pulse:name="&lt;Path&gt;" pulse:type="shape" fill-rule="nonzero" fill="rgb(78,42,132)" pulse:FillType="solid" stroke-opacity="0">
                            <pulse:ColorMetadata>
                                <pulse:Color pulse:colorType="spot,rgb" pulse:colorValues="0.31,0.16,0.52" pulse:colorName="Victory Purple" pulse:colorUsedOn="fill"/>
                            </pulse:ColorMetadata>
                        </path>
                        <path d="M 444.76 -275.53L 438.98 -275.53L 439.57 -273.72L 439.57 -249.25L 438.98 -247.48L 444.76 -247.48L 444.17 -249.25L 444.17 -273.72L 444.76 -275.53z" opacity="1.00" pulse:name="&lt;Path&gt;" pulse:type="shape" fill-rule="nonzero" fill="rgb(78,42,132)" pulse:FillType="solid" stroke-opacity="0">
                            <pulse:ColorMetadata>
                                <pulse:Color pulse:colorType="spot,rgb" pulse:colorValues="0.31,0.16,0.52" pulse:colorName="Victory Purple" pulse:colorUsedOn="fill"/>
                            </pulse:ColorMetadata>
                        </path>
                        <path d="M 447.86 -275.53L 447.01 -270.29L 448.93 -270.81L 452.50 -270.81L 453.06 -270.29L 453.06 -249.25L 452.47 -247.48L 458.33 -247.48L 457.74 -249.25L 457.74 -270.29L 458.25 -270.81L 461.75 -270.81L 463.75 -270.29L 462.86 -275.53L 447.86 -275.53z" opacity="1.00" pulse:name="&lt;Path&gt;" pulse:type="shape" fill-rule="nonzero" fill="rgb(78,42,132)" pulse:FillType="solid" stroke-opacity="0">
                            <pulse:ColorMetadata>
                                <pulse:Color pulse:colorType="spot,rgb" pulse:colorValues="0.31,0.16,0.52" pulse:colorName="Victory Purple" pulse:colorUsedOn="fill"/>
                            </pulse:ColorMetadata>
                        </path>
                        <path d="M 471.74 -270.92L 478.93 -270.92L 480.85 -270.36L 480.00 -275.53L 465.99 -275.53L 466.58 -273.76L 466.58 -249.29L 465.99 -247.48L 480.00 -247.48L 480.85 -252.76L 478.93 -252.20L 471.74 -252.20L 471.19 -252.76L 471.19 -258.81L 471.74 -259.33L 474.10 -259.33L 475.91 -258.74L 475.91 -264.61L 474.10 -264.02L 471.74 -264.02L 471.19 -264.57L 471.19 -270.36L 471.74 -270.92z" opacity="1.00" pulse:name="&lt;Path&gt;" pulse:type="shape" fill-rule="nonzero" fill="rgb(78,42,132)" pulse:FillType="solid" stroke-opacity="0">
                            <pulse:ColorMetadata>
                                <pulse:Color pulse:colorType="spot,rgb" pulse:colorValues="0.31,0.16,0.52" pulse:colorName="Victory Purple" pulse:colorUsedOn="fill"/>
                            </pulse:ColorMetadata>
                        </path>
                        <path d="M 530.64 -252.76L 530.09 -252.20L 526.51 -252.20L 525.96 -252.76L 525.96 -270.36L 526.51 -270.92L 530.09 -270.92L 530.64 -270.36L 530.64 -252.76zM 520.76 -275.53L 521.28 -273.76L 521.28 -249.29L 520.76 -247.48L 533.00 -247.48L 535.36 -249.80L 535.36 -273.24L 533.00 -275.53L 520.76 -275.53z" opacity="1.00" pulse:name="&lt;Compound Path&gt;" pulse:type="shape" fill-rule="nonzero" fill="rgb(78,42,132)" pulse:FillType="solid" stroke-opacity="0">
                            <pulse:ColorMetadata>
                                <pulse:Color pulse:colorType="spot,rgb" pulse:colorValues="0.31,0.16,0.52" pulse:colorName="Victory Purple" pulse:colorUsedOn="fill"/>
                            </pulse:ColorMetadata>
                        </path>
                        <path d="M 547.93 -258.15L 545.20 -258.15L 544.76 -258.55L 546.56 -267.52L 548.37 -258.55L 547.93 -258.15zM 549.22 -273.91L 549.73 -275.53L 543.36 -275.53L 543.87 -273.91L 538.12 -249.36L 537.20 -247.48L 543.06 -247.48L 542.66 -248.59L 543.69 -252.87L 544.24 -253.42L 548.85 -253.42L 549.40 -252.87L 550.43 -248.59L 550.03 -247.48L 555.89 -247.48L 554.97 -249.36L 549.22 -273.91z" opacity="1.00" pulse:name="&lt;Compound Path&gt;" pulse:type="shape" fill-rule="nonzero" fill="rgb(78,42,132)" pulse:FillType="solid" stroke-opacity="0">
                            <pulse:ColorMetadata>
                                <pulse:Color pulse:colorType="spot,rgb" pulse:colorValues="0.31,0.16,0.52" pulse:colorName="Victory Purple" pulse:colorUsedOn="fill"/>
                            </pulse:ColorMetadata>
                        </path>
                        <path d="M 574.87 -275.53L 569.01 -275.53L 569.60 -273.72L 569.60 -258.44L 562.82 -275.53L 557.62 -275.53L 558.21 -273.72L 558.21 -249.25L 557.62 -247.48L 563.41 -247.48L 562.82 -249.25L 562.82 -264.53L 569.60 -247.48L 574.87 -247.48L 574.28 -249.25L 574.28 -273.72L 574.87 -275.53z" opacity="1.00" pulse:name="&lt;Path&gt;" pulse:type="shape" fill-rule="nonzero" fill="rgb(78,42,132)" pulse:FillType="solid" stroke-opacity="0">
                            <pulse:ColorMetadata>
                                <pulse:Color pulse:colorType="spot,rgb" pulse:colorValues="0.31,0.16,0.52" pulse:colorName="Victory Purple" pulse:colorUsedOn="fill"/>
                            </pulse:ColorMetadata>
                        </path>
                        <path d="M 587.14 -266.75L 593.00 -266.75L 592.41 -268.52L 592.41 -273.24L 590.09 -275.53L 580.77 -275.53L 578.41 -273.24L 578.41 -249.80L 580.77 -247.48L 590.09 -247.48L 592.41 -249.80L 592.41 -254.57L 593.00 -256.34L 587.14 -256.34L 587.77 -254.57L 587.77 -252.76L 587.25 -252.20L 583.61 -252.20L 583.05 -252.76L 583.05 -270.36L 583.61 -270.92L 587.25 -270.92L 587.77 -270.36L 587.77 -268.52L 587.14 -266.75z" opacity="1.00" pulse:name="&lt;Path&gt;" pulse:type="shape" fill-rule="nonzero" fill="rgb(78,42,132)" pulse:FillType="solid" stroke-opacity="0">
                            <pulse:ColorMetadata>
                                <pulse:Color pulse:colorType="spot,rgb" pulse:colorValues="0.31,0.16,0.52" pulse:colorName="Victory Purple" pulse:colorUsedOn="fill"/>
                            </pulse:ColorMetadata>
                        </path>
                        <path d="M 601.48 -252.20L 600.93 -252.76L 600.93 -258.81L 601.48 -259.33L 603.84 -259.33L 605.65 -258.74L 605.65 -264.61L 603.84 -264.02L 601.48 -264.02L 600.93 -264.57L 600.93 -270.36L 601.48 -270.92L 608.67 -270.92L 610.59 -270.36L 609.74 -275.53L 595.73 -275.53L 596.32 -273.76L 596.32 -249.29L 595.73 -247.48L 609.74 -247.48L 610.59 -252.76L 608.67 -252.20L 601.48 -252.20z" opacity="1.00" pulse:name="&lt;Path&gt;" pulse:type="shape" fill-rule="nonzero" fill="rgb(78,42,132)" pulse:FillType="solid" stroke-opacity="0">
                            <pulse:ColorMetadata>
                                <pulse:Color pulse:colorType="spot,rgb" pulse:colorValues="0.31,0.16,0.52" pulse:colorName="Victory Purple" pulse:colorUsedOn="fill"/>
                            </pulse:ColorMetadata>
                        </path>
                    </g>
                </g>
            </g>
        </g>
    </g>
</svg>
